<svg xmlns="http://www.w3.org/2000/svg" viewBox="0 0 48 48" width="48" height="48"><g class="nc-icon-wrapper"><path d="M36,30a1,1,0,0,1-.9-.553c-4.061-8.122-3.832-15.6.583-21.332a27.143,27.143,0,0,0-7.32,1.815,1,1,0,1,1-.736-1.86A28.164,28.164,0,0,1,38,6a1,1,0,0,1,.707,1.707c-5.26,5.26-5.9,12.664-1.812,20.846A1,1,0,0,1,36,30Z" fill="#8e6e62"></path> <path d="M12,30a1,1,0,0,1-1-1c0-5.625,2.488-10.861,7.2-15.144a1,1,0,0,1,1.346,1.48C16.557,18.051,13,22.625,13,29A1,1,0,0,1,12,30Z" fill="#8e6e62"></path> <path d="M16,16C9.659,16,3.55,9.964,3.293,9.707A1,1,0,0,1,3.3,8.286C3.562,8.029,9.788,2,16,2c6.341,0,12.45,6.036,12.707,6.293A1,1,0,0,1,28.714,9.7C28.462,9.957,22.471,16,16,16Z" fill="#88c057"></path> <path d="M17.942,28.113c-1.3-.975-2.774-.681-4.071-.42A9.711,9.711,0,0,1,12,27.945a9.9,9.9,0,0,1-1.875-.248c-1.306-.257-2.785-.548-4.1.438a9.931,9.931,0,1,0,15.9,7.935A9.855,9.855,0,0,0,17.942,28.113Z" fill="#e86c60"></path> <path d="M41.942,28.113c-1.3-.975-2.774-.681-4.071-.42A9.711,9.711,0,0,1,36,27.945a9.9,9.9,0,0,1-1.875-.248c-1.306-.257-2.785-.548-4.1.438a9.93,9.93,0,1,0,11.914-.022Z" fill="#e86c60"></path></g></svg>